<svg xmlns="http://www.w3.org/2000/svg" xmlns:xlink="http://www.w3.org/1999/xlink" width="500" zoomAndPan="magnify" viewBox="0 0 375 374.999991" height="500" preserveAspectRatio="xMidYMid meet" version="1.0"><defs><clipPath id="id1"><path d="M 85.363281 115.082031 L 309.660156 115.082031 L 309.660156 259.699219 L 85.363281 259.699219 Z M 85.363281 115.082031 " clip-rule="nonzero"/></clipPath></defs><path fill="#38b6ff" d="M 294.320312 192.476562 C 294.320312 192.476562 293.589844 225.789062 249.839844 222.335938 C 231.554688 220.890625 216.445312 214.144531 201.824219 206.214844 C 200.421875 207.566406 199.007812 208.960938 197.574219 210.394531 C 193.015625 214.953125 188.523438 219.261719 184.09375 223.273438 C 208.941406 235.867188 231.003906 243.773438 248.746094 242.851562 C 301.84375 240.09375 294.320312 192.476562 294.320312 192.476562 " fill-opacity="1" fill-rule="nonzero"/><path fill="#38b6ff" d="M 163.113281 161.746094 C 163.113281 149.816406 153.4375 140.144531 141.496094 140.144531 C 129.554688 140.144531 119.875 149.816406 119.875 161.746094 C 119.875 167.183594 121.882812 172.148438 125.199219 175.945312 C 119.738281 175.578125 113.992188 175.617188 107.902344 176.144531 C 86.238281 178.03125 69.59375 191.828125 67.640625 209.066406 C 65.167969 230.929688 85.988281 242.675781 85.988281 242.675781 C 85.988281 242.675781 67.222656 222.355469 88.3125 206.644531 C 103.976562 194.980469 126.664062 195.773438 162.339844 212.300781 C 168.558594 206.53125 174.347656 200.324219 180.210938 194.101562 C 171.082031 189.101562 161.636719 184.425781 151.238281 181.039062 C 158.285156 177.476562 163.113281 170.175781 163.113281 161.746094 " fill-opacity="1" fill-rule="nonzero"/><path fill="#38b6ff" d="M 201.824219 206.214844 C 200.421875 207.566406 199.007812 208.960938 197.574219 210.394531 C 193.015625 214.953125 188.523438 219.261719 184.09375 223.273438 C 189.695312 226.113281 195.152344 228.710938 200.449219 231.023438 C 204.804688 227.070312 209.21875 222.832031 213.699219 218.351562 C 215.144531 216.90625 216.566406 215.507812 217.976562 214.144531 C 212.445312 211.785156 207.101562 209.078125 201.824219 206.214844 " fill-opacity="1" fill-rule="nonzero"/><g clip-path="url(#id1)"><path fill="#f09c13" d="M 307.066406 171.921875 C 302.183594 160.738281 290.855469 153.316406 277.160156 151.488281 C 280.804688 147.625 283.039062 142.414062 283.039062 136.683594 C 283.039062 124.753906 273.359375 115.082031 261.417969 115.082031 C 249.480469 115.082031 239.800781 124.753906 239.800781 136.683594 C 239.800781 144.222656 243.664062 150.855469 249.515625 154.71875 C 195.527344 171.132812 183.082031 219.855469 136.84375 238.179688 C 96.046875 254.34375 85.542969 222.71875 85.542969 222.71875 C 85.542969 222.71875 92.375 270.441406 143.933594 257.464844 C 162.730469 252.730469 183.34375 236.449219 205.457031 214.332031 C 240.996094 178.785156 265.75 168.273438 286.601562 175.6875 C 311.382812 184.5 299.429688 209.4375 299.429688 209.4375 C 299.429688 209.4375 315.871094 192.089844 307.066406 171.921875 " fill-opacity="1" fill-rule="nonzero"/></g></svg>